<svg width="1176" height="1176" viewBox="0 0 1176 1176" fill="none" xmlns="http://www.w3.org/2000/svg">
<path d="M520.983 505.556C427.653 434.544 312.904 379.041 187.38 494.633C179.962 501.464 176 511.222 176 521.307V643C176 663.987 193.013 681 214 681H962C982.987 681 1000 663.987 1000 643V540.15C1000 527.789 994.072 516.053 983.653 509.403C935.628 478.75 889.897 468.049 800.928 520.435C701.958 578.709 617.126 578.709 520.983 505.556Z" fill="url(#paint0_linear_1917_505)"/>
<path d="M520.983 505.556C427.653 434.544 312.904 379.041 187.38 494.633C179.962 501.464 176 511.222 176 521.307V643C176 663.987 193.013 681 214 681H962C982.987 681 1000 663.987 1000 643V540.15C1000 527.789 994.072 516.053 983.653 509.403C935.628 478.75 889.897 468.049 800.928 520.435C701.958 578.709 617.126 578.709 520.983 505.556Z" fill="url(#paint1_linear_1917_505)"/>
<path d="M250.2 650L306.2 554H322.2L378.2 650H364.2L352.2 628H276.2L264.2 650H250.2ZM282.2 618H346.2L314.2 562L282.2 618ZM400.85 554H465.1C474.475 554 482.017 554.417 487.725 555.25C493.475 556.083 497.829 557.521 500.788 559.562C503.746 561.604 505.746 564.396 506.788 567.938C507.829 571.479 508.35 575.958 508.35 581.375V583.875C508.35 588.875 507.746 593.188 506.538 596.812C505.371 600.396 503.1 603.312 499.725 605.562C496.35 607.771 491.35 609.333 484.725 610.25L505.6 650H493.6L473.163 611.125C472.329 611.167 471.454 611.188 470.538 611.188C469.663 611.188 468.746 611.188 467.788 611.188H412.85V650H400.85V554ZM412.85 600.812H465.913C473.038 600.812 478.642 600.583 482.725 600.125C486.85 599.625 489.871 598.771 491.788 597.562C493.746 596.354 494.996 594.646 495.538 592.438C496.079 590.229 496.35 587.375 496.35 583.875V581.375C496.35 577.417 495.975 574.292 495.225 572C494.475 569.708 492.975 568.021 490.725 566.938C488.475 565.854 485.121 565.167 480.663 564.875C476.204 564.542 470.246 564.375 462.788 564.375H412.85V600.812ZM533.5 603.25V600.75C533.5 592.25 533.917 585.125 534.75 579.375C535.583 573.583 537.021 568.875 539.062 565.25C541.104 561.625 543.875 558.854 547.375 556.938C550.917 555.021 555.354 553.729 560.688 553.062C566.021 552.354 572.438 552 579.938 552H603.438C613.271 552 621.25 552.375 627.375 553.125C633.542 553.875 638.271 555.312 641.562 557.438C644.896 559.562 647.188 562.667 648.438 566.75C649.688 570.792 650.312 576.104 650.312 582.688H638.312C638.312 577.729 637.875 573.875 637 571.125C636.125 568.333 634.479 566.333 632.062 565.125C629.646 563.875 626.125 563.104 621.5 562.812C616.917 562.521 610.896 562.375 603.438 562.375H579.938C573.979 562.375 568.958 562.562 564.875 562.938C560.792 563.271 557.458 564.083 554.875 565.375C552.333 566.625 550.375 568.625 549 571.375C547.667 574.125 546.75 577.875 546.25 582.625C545.75 587.375 545.5 593.417 545.5 600.75V603.25C545.5 610.333 545.75 616.208 546.25 620.875C546.75 625.542 547.667 629.271 549 632.062C550.375 634.854 552.333 636.938 554.875 638.312C557.458 639.688 560.792 640.583 564.875 641C568.958 641.417 573.979 641.625 579.938 641.625H607.625C614.5 641.625 620.042 641.354 624.25 640.812C628.458 640.229 631.646 639.021 633.812 637.188C636.021 635.312 637.5 632.479 638.25 628.688C639 624.854 639.375 619.688 639.375 613.188V609.5H593.438V599.5H651.375V613.188C651.375 621.312 650.688 627.917 649.312 633C647.938 638.083 645.604 642.021 642.312 644.812C639.062 647.562 634.604 649.438 628.938 650.438C623.312 651.479 616.208 652 607.625 652H579.938C570.562 652 562.854 651.354 556.812 650.062C550.771 648.812 546.042 646.479 542.625 643.062C539.25 639.646 536.875 634.729 535.5 628.312C534.167 621.896 533.5 613.542 533.5 603.25ZM722.963 652C713.588 652 705.879 651.354 699.838 650.062C693.796 648.812 689.067 646.479 685.65 643.062C682.275 639.646 679.9 634.729 678.525 628.312C677.192 621.896 676.525 613.542 676.525 603.25V554H688.525V603.25C688.525 610.333 688.775 616.208 689.275 620.875C689.775 625.542 690.713 629.271 692.088 632.062C693.463 634.854 695.421 636.938 697.963 638.312C700.546 639.688 703.879 640.583 707.963 641C712.046 641.417 717.046 641.625 722.963 641.625H745.588C751.546 641.625 756.546 641.417 760.588 641C764.671 640.583 767.983 639.688 770.525 638.312C773.108 636.938 775.088 634.854 776.463 632.062C777.838 629.271 778.775 625.542 779.275 620.875C779.775 616.208 780.025 610.333 780.025 603.25V554H792.025V603.25C792.025 613.542 791.338 621.896 789.963 628.312C788.629 634.729 786.254 639.646 782.838 643.062C779.463 646.479 774.754 648.812 768.713 650.062C762.671 651.354 754.963 652 745.588 652H722.963ZM921.112 622.25C921.112 618.542 920.821 615.625 920.237 613.5C919.654 611.375 918.342 609.812 916.3 608.812C914.258 607.771 911.092 607.104 906.8 606.812C902.508 606.479 896.633 606.25 889.175 606.125L854.425 605.625C845.842 605.5 838.946 604.979 833.737 604.062C828.529 603.146 824.592 601.708 821.925 599.75C819.258 597.75 817.467 595.083 816.55 591.75C815.675 588.417 815.237 584.25 815.237 579.25C815.237 573.792 815.842 569.292 817.05 565.75C818.3 562.208 820.529 559.438 823.737 557.438C826.987 555.438 831.571 554.042 837.487 553.25C843.404 552.417 851.05 552 860.425 552H887.175C895.675 552 902.758 552.271 908.425 552.812C914.092 553.354 918.592 554.604 921.925 556.562C925.258 558.521 927.633 561.562 929.05 565.688C930.508 569.812 931.237 575.479 931.237 582.688H919.237C919.237 577.104 918.696 572.896 917.612 570.062C916.571 567.188 914.821 565.229 912.362 564.188C909.946 563.146 906.675 562.583 902.55 562.5C898.425 562.417 893.3 562.375 887.175 562.375H861.05C853.592 562.375 847.612 562.521 843.112 562.812C838.654 563.104 835.279 563.771 832.987 564.812C830.696 565.854 829.154 567.521 828.362 569.812C827.612 572.104 827.237 575.25 827.237 579.25C827.237 582.625 827.508 585.333 828.05 587.375C828.592 589.417 829.8 590.979 831.675 592.062C833.592 593.104 836.529 593.833 840.487 594.25C844.446 594.625 849.842 594.854 856.675 594.938L893.925 595.438C902.675 595.562 909.654 596.083 914.862 597C920.112 597.875 924.029 599.312 926.612 601.312C929.237 603.312 930.967 606.021 931.8 609.438C932.675 612.812 933.112 617.083 933.112 622.25C933.112 627.875 932.571 632.604 931.487 636.438C930.446 640.229 928.404 643.271 925.362 645.562C922.321 647.854 917.925 649.5 912.175 650.5C906.425 651.5 898.862 652 889.487 652H860.237C851.696 652 844.529 651.625 838.737 650.875C832.946 650.125 828.321 648.625 824.862 646.375C821.446 644.083 818.987 640.688 817.487 636.188C815.987 631.688 815.237 625.688 815.237 618.188H827.237C827.237 624.062 827.717 628.604 828.675 631.812C829.633 635.021 831.3 637.333 833.675 638.75C836.092 640.125 839.446 640.958 843.737 641.25C848.071 641.5 853.571 641.625 860.237 641.625H888.862C896.321 641.625 902.217 641.396 906.55 640.938C910.883 640.438 914.092 639.521 916.175 638.188C918.258 636.812 919.592 634.854 920.175 632.312C920.8 629.771 921.112 626.417 921.112 622.25Z" fill="white"/>
<defs>
<linearGradient id="paint0_linear_1917_505" x1="588" y1="428" x2="588" y2="681" gradientUnits="userSpaceOnUse">
<stop stop-color="#6DB1FC"/>
<stop offset="1" stop-color="#6DB1FC" stop-opacity="0.5"/>
</linearGradient>
<linearGradient id="paint1_linear_1917_505" x1="176" y1="554.5" x2="1000" y2="554.5" gradientUnits="userSpaceOnUse">
<stop stop-opacity="0.5"/>
<stop offset="0.5" stop-opacity="0"/>
<stop offset="1" stop-opacity="0.5"/>
</linearGradient>
</defs>
</svg>
