<svg width="1176" height="1176" viewBox="0 0 1176 1176" fill="none" xmlns="http://www.w3.org/2000/svg">
<path d="M814 730L683.22 599.333V400.067H484.598V730L353 599.333V270.217H551.622V142L814 400.067V730Z" fill="black"/>
<path d="M318.336 788C335.184 788 349.691 791.163 361.859 797.489C374.026 803.58 383.386 812.483 389.937 824.197C396.723 835.911 400.116 850.203 400.116 867.071V961.254C400.116 976.717 397.308 989.954 391.692 1000.97C386.311 1011.74 378.004 1019.94 366.772 1025.57C355.775 1031.19 341.969 1034 325.356 1034H252V788H318.336ZM320.091 998.154C329.919 998.154 337.641 997.1 343.256 994.991C348.872 992.883 352.85 990.189 355.19 986.909C357.764 983.394 359.402 979.763 360.104 976.014C360.806 972.031 361.157 968.283 361.157 964.769V863.557C361.157 855.123 359.753 848.329 356.945 843.174C354.137 837.786 349.808 833.803 343.958 831.226C338.343 828.649 330.972 827.36 321.846 827.36H290.959V998.154H320.091Z" fill="black"/>
<path d="M513.092 788C529.94 788 544.447 791.163 556.615 797.489C568.782 803.58 578.142 812.483 584.694 824.197C591.479 835.911 594.872 850.203 594.872 867.071V961.254C594.872 976.717 592.064 989.954 586.448 1000.97C581.067 1011.74 572.76 1019.94 561.528 1025.57C550.531 1031.19 536.725 1034 520.112 1034H446.756V788H513.092ZM514.847 998.154C524.675 998.154 532.397 997.1 538.012 994.991C543.628 992.883 547.606 990.189 549.946 986.909C552.52 983.394 554.158 979.763 554.86 976.014C555.562 972.031 555.913 968.283 555.913 964.769V863.557C555.913 855.123 554.509 848.329 551.701 843.174C548.893 837.786 544.564 833.803 538.714 831.226C533.099 828.649 525.728 827.36 516.602 827.36H485.715V998.154H514.847Z" fill="black"/>
<path d="M641.512 1034V788H759.092V826.657H680.472V888.509H728.557L717.676 925.409H680.472V998.506H758.39V1034H641.512Z" fill="black"/>
<path d="M923 788V826.657H844.379V888.509H892.464L880.18 925.409H844.379V1034H805.42V788H923Z" fill="black"/>
</svg>
