<svg width="1176" height="1176" viewBox="0 0 1176 1176" fill="none" xmlns="http://www.w3.org/2000/svg">
<path d="M886 741L877.762 774.502L911.565 782.814L919.574 748.938L886 741ZM960 428L993.574 435.938C996.926 421.761 991.012 407.006 978.796 399.07C966.58 391.133 950.696 391.725 939.104 400.548L960 428ZM281 741L247.45 749.039L255.561 782.89L289.338 774.477L281 741ZM206 428L226.405 400.181C214.734 391.62 198.96 391.255 186.904 399.267C174.849 407.278 169.077 421.963 172.45 436.039L206 428ZM573 697.201L573.381 731.698L573.381 731.698L573 697.201ZM590 697.179L589.708 731.677L589.708 731.677L590 697.179ZM589 305L619.108 288.155C613.033 277.297 601.582 270.551 589.14 270.5C576.698 270.45 565.193 277.102 559.03 287.911L589 305ZM349.5 725.019L356.767 758.745L356.767 758.745L349.5 725.019ZM825 726.801L817.651 760.509L817.651 760.509L825 726.801ZM919.574 748.938L993.574 435.938L926.426 420.062L852.426 733.062L919.574 748.938ZM939.104 400.548L727.179 561.862L768.971 616.766L980.896 455.452L939.104 400.548ZM727.179 561.862L585.104 670.008L626.896 724.912L768.971 616.766L727.179 561.862ZM314.55 732.961L239.55 419.961L172.45 436.039L247.45 749.039L314.55 732.961ZM185.595 455.819L406.192 617.63L447.002 561.993L226.405 400.181L185.595 455.819ZM406.192 617.63L552.595 725.019L593.405 669.382L447.002 561.993L406.192 617.63ZM573.381 731.698C578.825 731.638 584.265 731.631 589.708 731.677L590.292 662.68C584.401 662.63 578.512 662.638 572.619 662.703L573.381 731.698ZM589.708 731.677C594.827 731.721 599.949 731.811 605.078 731.948L606.922 662.973C601.374 662.824 595.832 662.727 590.292 662.68L589.708 731.677ZM554.5 305.088L555.5 697.267L624.5 697.091L623.5 304.912L554.5 305.088ZM289.338 774.477C312.855 768.62 335.257 763.38 356.767 758.745L342.233 691.293C319.903 696.105 296.779 701.516 272.662 707.523L289.338 774.477ZM356.767 758.745C437.841 741.277 506.161 732.44 573.381 731.698L572.619 662.703C499.592 663.508 426.517 673.134 342.233 691.293L356.767 758.745ZM559.03 287.911L396.627 572.722L456.567 606.901L618.97 322.089L559.03 287.911ZM396.627 572.722L319.53 707.93L379.47 742.109L456.567 606.901L396.627 572.722ZM605.078 731.948C670.651 733.701 737.911 743.124 817.651 760.509L832.349 693.093C749.763 675.087 678.033 664.873 606.922 662.973L605.078 731.948ZM817.651 760.509C836.916 764.709 856.901 769.372 877.762 774.502L894.238 707.498C872.874 702.245 852.291 697.441 832.349 693.093L817.651 760.509ZM558.892 321.845L717.968 606.16L778.183 572.469L619.108 288.155L558.892 321.845ZM717.968 606.16L794.892 743.646L855.108 709.955L778.183 572.469L717.968 606.16ZM277.136 860.127C503.463 794.292 677.992 794.959 887.268 859.948L907.732 794.052C684.772 724.814 496.399 724.487 257.864 793.873L277.136 860.127Z" fill="white"/>
</svg>
