<svg width="1176" height="1176" viewBox="0 0 1176 1176" fill="none" xmlns="http://www.w3.org/2000/svg">
<path d="M274 588C274 414.583 414.583 274 588 274C761.417 274 902 414.583 902 588C902 761.417 761.417 902 588 902C414.583 902 274 761.417 274 588Z" fill="white"/>
<path d="M586.33 848.553C550.493 848.553 516.622 841.67 484.718 827.903C452.814 814.136 424.953 795.344 401.135 771.525C377.316 747.706 358.523 719.845 344.756 687.941C330.99 656.038 324.106 622.167 324.106 586.33C324.106 550.056 330.99 516.076 344.756 484.39C358.523 452.705 377.316 424.953 401.135 401.135C424.953 377.316 452.814 358.523 484.718 344.756C516.622 330.99 550.493 324.106 586.33 324.106C622.604 324.106 656.584 330.99 688.269 344.756C719.954 358.523 747.706 377.316 771.525 401.135C795.344 424.953 814.136 452.705 827.903 484.39C841.67 516.076 848.553 550.056 848.553 586.33C848.553 622.167 841.67 656.038 827.903 687.941C814.136 719.845 795.344 747.706 771.525 771.525C747.706 795.344 719.954 814.136 688.269 827.903C656.584 841.67 622.604 848.553 586.33 848.553ZM586.33 794.797C597.693 779.064 607.526 762.675 615.83 745.631C624.134 728.586 630.908 710.449 636.152 691.219H536.507C541.752 710.449 548.526 728.586 556.83 745.631C565.133 762.675 574.967 779.064 586.33 794.797ZM518.152 784.308C510.285 769.886 503.402 754.918 497.502 739.403C491.602 723.888 486.685 707.827 482.752 691.219H405.396C418.07 713.071 433.912 732.082 452.924 748.253C471.935 764.423 493.678 776.442 518.152 784.308ZM654.508 784.308C678.982 776.442 700.725 764.423 719.736 748.253C738.747 732.082 754.59 713.071 767.264 691.219H689.908C685.975 707.827 681.058 723.888 675.158 739.403C669.258 754.918 662.375 769.886 654.508 784.308ZM383.107 638.774H472.263C470.951 630.034 469.968 621.402 469.313 612.88C468.657 604.358 468.329 595.508 468.329 586.33C468.329 577.152 468.657 568.302 469.313 559.78C469.968 551.257 470.951 542.626 472.263 533.885H383.107C380.921 542.626 379.283 551.257 378.19 559.78C377.097 568.302 376.551 577.152 376.551 586.33C376.551 595.508 377.097 604.358 378.19 612.88C379.283 621.402 380.921 630.034 383.107 638.774ZM524.707 638.774H647.952C649.263 630.034 650.247 621.402 650.902 612.88C651.558 604.358 651.886 595.508 651.886 586.33C651.886 577.152 651.558 568.302 650.902 559.78C650.247 551.257 649.263 542.626 647.952 533.885H524.707C523.396 542.626 522.413 551.257 521.757 559.78C521.102 568.302 520.774 577.152 520.774 586.33C520.774 595.508 521.102 604.358 521.757 612.88C522.413 621.402 523.396 630.034 524.707 638.774ZM700.397 638.774H789.553C791.738 630.034 793.377 621.402 794.47 612.88C795.562 604.358 796.109 595.508 796.109 586.33C796.109 577.152 795.562 568.302 794.47 559.78C793.377 551.257 791.738 542.626 789.553 533.885H700.397C701.708 542.626 702.691 551.257 703.347 559.78C704.003 568.302 704.33 577.152 704.33 586.33C704.33 595.508 704.003 604.358 703.347 612.88C702.691 621.402 701.708 630.034 700.397 638.774ZM689.908 481.44H767.264C754.59 459.588 738.747 440.577 719.736 424.407C700.725 408.236 678.982 396.218 654.508 388.351C662.375 402.773 669.258 417.742 675.158 433.257C681.058 448.772 685.975 464.833 689.908 481.44ZM536.507 481.44H636.152C630.908 462.211 624.134 444.074 615.83 427.029C607.526 409.985 597.693 393.596 586.33 377.862C574.967 393.596 565.133 409.985 556.83 427.029C548.526 444.074 541.752 462.211 536.507 481.44ZM405.396 481.44H482.752C486.685 464.833 491.602 448.772 497.502 433.257C503.402 417.742 510.285 402.773 518.152 388.351C493.678 396.218 471.935 408.236 452.924 424.407C433.912 440.577 418.07 459.588 405.396 481.44Z" fill="black"/>
</svg>
