<svg width="1176" height="1176" viewBox="0 0 1176 1176" fill="none" xmlns="http://www.w3.org/2000/svg">
<path d="M560.549 185.945C514.426 201.914 491.834 246.506 500.306 306.164C509.719 375.463 542.351 416.439 590.984 420.658C648.717 425.78 692.33 376.366 699.86 297.426C704.567 244.397 685.113 205.831 644.951 188.657C624.243 179.618 582.826 178.412 560.549 185.945ZM626.753 223.909C651.854 233.852 664.405 264.584 657.816 301.042C650.599 341.114 636.166 368.231 616.085 377.873C595.69 388.117 570.589 378.476 558.666 355.878C535.134 310.984 533.879 257.654 556.156 233.55C558.98 230.537 565.883 226.018 570.903 223.909C583.14 218.787 613.889 218.485 626.753 223.909Z" fill="#FFFFFF"/>
<path d="M569.336 442.653C520.702 448.377 465.166 470.372 424.377 499.9C365.389 542.986 313.618 613.49 282.555 693.937C267.495 731.901 268.122 732.805 311.735 734.311C364.448 736.42 419.357 726.779 467.99 706.591L493.091 696.347L490.581 708.701C482.737 743.049 442.575 812.046 431.907 809.033C401.158 799.994 354.721 798.789 326.169 805.719C267.808 820.483 226.392 864.774 231.412 906.956C233.922 927.143 241.766 941.907 259.023 958.478C277.221 975.953 299.812 987.102 328.992 993.128C380.764 1003.37 448.223 986.198 554.589 935.881L588.162 919.61L622.048 935.881C751.946 997.647 825.367 1010 886.238 980.473C905.691 970.831 929.851 948.836 937.381 932.868C958.09 890.987 935.499 843.382 882.786 818.072C853.292 803.911 831.956 799.994 791.167 802.103L757.594 803.61L742.847 782.218C734.689 770.768 724.963 753.594 721.198 744.254C712.726 724.067 705.509 699.36 707.706 697.552C708.647 696.649 718.06 699.963 728.728 704.784C769.831 723.766 825.054 734.914 876.511 734.914C911.339 734.914 923.262 732.805 925.458 725.875C927.654 719.246 910.397 675.558 892.199 640.607C843.566 547.204 762.928 476.7 677.584 451.993C658.131 446.57 606.987 439.037 594.437 439.941C591.927 440.242 580.631 441.448 569.336 442.653ZM655.621 490.861C676.957 496.284 707.392 507.432 707.392 509.843C707.392 510.445 701.744 522.497 695.155 536.357C683.546 560.16 669.74 602.944 669.74 614.996C669.74 618.009 676.643 624.638 686.056 630.965L702.686 641.511L709.588 612.586C716.805 582.757 739.082 533.043 744.73 533.043C751.005 533.043 795.873 576.43 815.954 602.04C834.466 625.843 867.412 683.391 867.412 691.828C867.412 700.867 793.363 693.033 752.26 679.474C719.629 668.929 687.625 651.755 669.74 635.786C649.346 617.407 639.619 596.014 635.226 560.16C633.344 544.492 630.834 525.812 630.206 518.58C628.637 507.432 627.696 505.926 620.793 505.926C613.89 505.926 613.263 507.131 613.263 520.087C613.263 528.222 614.832 549.916 616.4 568.897C619.852 608.97 628.637 630.664 651.542 655.069C664.406 668.929 665.975 672.243 669.113 693.334C674.133 724.669 688.566 761.729 707.706 790.353C716.177 803.309 722.766 814.155 722.453 814.457C721.825 814.758 708.961 819.579 693.273 825.002C677.898 830.727 624.872 854.53 575.611 878.031C455.439 935.881 408.689 952.452 362.251 953.055C331.189 953.356 310.167 946.426 291.968 929.252C269.691 908.462 269.691 890.384 292.282 869.896C331.503 834.343 396.138 834.945 487.443 872.005L521.957 885.865L544.548 874.114L567.139 862.062L539.214 848.504C523.84 841.272 502.504 831.932 491.836 828.015C480.854 824.098 472.069 819.579 472.069 818.072C472.069 816.867 476.148 810.54 481.482 804.514C505.014 775.589 526.036 726.477 530.429 689.719C532.312 672.846 533.88 669.833 544.548 660.493C560.237 646.934 574.042 625.843 580.004 605.957C582.514 597.22 585.652 571.007 586.907 548.108L589.103 505.926H580.945C571.532 505.926 572.16 504.419 566.512 556.845C562.119 596.316 553.02 616.503 531.057 636.389C510.348 655.069 466.107 675.859 427.201 685.199C391.118 693.937 330.875 698.758 330.875 693.033C330.875 684.597 366.644 623.131 385.784 599.027C406.492 572.212 447.595 533.043 454.812 533.043C463.284 533.043 494.032 612.285 494.032 634.581C494.032 638.498 494.66 641.511 495.601 641.511C496.543 641.511 504.387 637.292 513.172 631.869L529.174 622.529L527.291 606.861C525.095 587.578 511.917 549.614 499.994 526.715L491.209 509.541L509.093 502.009C556.158 481.822 605.732 478.206 655.621 490.861ZM857.999 853.626C903.808 875.621 913.221 902.436 884.355 929.252C866.157 946.426 845.134 953.356 814.072 953.055C777.989 952.452 729.042 937.688 661.896 906.956L636.795 895.506L658.759 885.564C733.121 852.421 768.262 843.08 810.934 844.285C836.035 844.888 843.252 846.395 857.999 853.626Z" fill="#FFFFFF"/>
</svg>
